<svg xmlns="http://www.w3.org/2000/svg" width="100%" height="100%" viewBox="0 0 18.039 18.049">
  <g id="Group_177" data-name="Group 177" transform="translate(-1640.842 -576.417)">
    <path id="Path_43" data-name="Path 43" d="M1640.842,812.436a.834.834,0,0,1,.9-.543c3.6.01,7.2,0,10.8.008a3.332,3.332,0,0,1,3.275,2.1,3.464,3.464,0,0,1-4.081,4.721,3.338,3.338,0,0,1-2.506-2.7,3.277,3.277,0,0,1-.064-.629.7.7,0,0,1,.7-.727.712.712,0,0,1,.7.709,2.049,2.049,0,0,0,1.391,1.945,1.958,1.958,0,0,0,2.162-.526,1.937,1.937,0,0,0,.42-2.2,1.967,1.967,0,0,0-1.819-1.283c-.281-.017-.563,0-.845-.005q-5.072,0-10.145,0a.821.821,0,0,1-.888-.559Z" transform="translate(0 -224.393)" fill="#dc3545"/>
    <path id="Path_44" data-name="Path 44" d="M1640.842,582.512a.819.819,0,0,1,.888-.559c1.92.01,3.839.007,5.759,0a2.064,2.064,0,1,0-1.955-2.564,2.948,2.948,0,0,0-.067.5.705.705,0,1,1-1.409-.049,3.473,3.473,0,0,1,2.3-3.217c.268-.095.553-.143.83-.213h.7c.2.045.4.08.6.135a3.472,3.472,0,0,1-.321,6.757,4.16,4.16,0,0,1-.736.055c-1.9,0-3.792-.006-5.688.008a.833.833,0,0,1-.9-.543Z" fill="#dc3545"/>
    <path id="Path_45" data-name="Path 45" d="M1707.023,642.309q-2.782,0-5.565,0a.7.7,0,1,1-.09-1.407c.064,0,.129,0,.194,0q5.433,0,10.866,0a2.065,2.065,0,1,0-2.039-2.18,1.346,1.346,0,0,1-.049.346.7.7,0,0,1-1.362-.249,3.475,3.475,0,1,1,3.558,3.488c-1.837.016-3.675,0-5.512,0Z" transform="translate(-57.045 -56.168)" fill="#dc3545"/>
  </g>
</svg>
