<svg xmlns="http://www.w3.org/2000/svg" width="100%" height="100%" viewBox="0 0 18.039 18.077">
  <g id="Group_178" data-name="Group 178" transform="translate(-2656.884 585.404)">
    <path id="Path_46" data-name="Path 46" d="M2660.446-376.051a4.567,4.567,0,0,1-2.022.777,3.781,3.781,0,0,1-.822.029.8.8,0,0,1-.713-.835.811.811,0,0,1,.813-.785,3.027,3.027,0,0,0,1.815-.572,1.651,1.651,0,0,1,1.862,0,3.314,3.314,0,0,0,3.59,0,1.675,1.675,0,0,1,1.9.012,3.334,3.334,0,0,0,3.559,0,1.663,1.663,0,0,1,1.909.008,2.887,2.887,0,0,0,1.725.549.821.821,0,0,1,.87.807.826.826,0,0,1-.848.833,4.3,4.3,0,0,1-2.535-.747.222.222,0,0,0-.284,0,4.74,4.74,0,0,1-5.205-.011.174.174,0,0,0-.218-.016A4.849,4.849,0,0,1,2660.446-376.051Z" transform="translate(-0.003 -197.042)" fill="#58C5F0"/>
    <path id="Path_47" data-name="Path 47" d="M2660.455-280.047a4.562,4.562,0,0,1-2.033.784,3.769,3.769,0,0,1-.859.022.79.79,0,0,1-.676-.845.8.8,0,0,1,.791-.765,3.107,3.107,0,0,0,1.851-.581,1.635,1.635,0,0,1,1.86.02,3.337,3.337,0,0,0,3.559,0,1.672,1.672,0,0,1,1.911,0,3.335,3.335,0,0,0,3.559,0,1.663,1.663,0,0,1,1.91.007,2.888,2.888,0,0,0,1.725.55.822.822,0,0,1,.871.805.825.825,0,0,1-.847.834,4.3,4.3,0,0,1-2.519-.736.248.248,0,0,0-.317-.006,4.741,4.741,0,0,1-5.189-.019.174.174,0,0,0-.218-.018,4.741,4.741,0,0,1-5.334-.039A.2.2,0,0,0,2660.455-280.047Z" transform="translate(0 -288.134)" fill="#58C5F0"/>
    <path id="Path_48" data-name="Path 48" d="M2673.958-582.9a4.373,4.373,0,0,1-2.426-.751.213.213,0,0,0-.27,0,4.743,4.743,0,0,1-5.221-.019c-.112-.07-.171-.02-.254.029a4.747,4.747,0,0,1-4.978.113.57.57,0,0,0-.685-.006,4.357,4.357,0,0,1-2.417.631.818.818,0,0,1-.823-.795.8.8,0,0,1,.78-.832,3.43,3.43,0,0,0,1.906-.6,1.554,1.554,0,0,1,1.807.035,3.339,3.339,0,0,0,3.592-.006,1.674,1.674,0,0,1,1.879.007,3.328,3.328,0,0,0,3.574,0,1.637,1.637,0,0,1,1.861-.015,3.1,3.1,0,0,0,1.814.579.8.8,0,0,1,.822.753.813.813,0,0,1-.624.854A1.905,1.905,0,0,1,2673.958-582.9Z" transform="translate(0)" fill="#58C5F0"/>
    <path id="Path_49" data-name="Path 49" d="M2673.831-478.923a4.281,4.281,0,0,1-2.3-.75.2.2,0,0,0-.253-.006,4.734,4.734,0,0,1-5.237-.015c-.114-.071-.173-.015-.253.033a4.835,4.835,0,0,1-4.487.371,4.43,4.43,0,0,1-.7-.389.2.2,0,0,0-.252,0,4.535,4.535,0,0,1-2.692.748.8.8,0,0,1-.759-.755.81.81,0,0,1,.63-.85c.2-.039.408-.027.611-.048a2.7,2.7,0,0,0,1.3-.488,1.727,1.727,0,0,1,2.024-.013,3.237,3.237,0,0,0,3.072.2,2.455,2.455,0,0,0,.435-.241,1.693,1.693,0,0,1,1.9,0,3.338,3.338,0,0,0,3.559.005,1.663,1.663,0,0,1,1.911,0,2.952,2.952,0,0,0,1.743.555.816.816,0,0,1,.856.819.822.822,0,0,1-.844.813C2674.006-478.921,2673.929-478.923,2673.831-478.923Z" transform="translate(-0.004 -98.664)" fill="#58C5F0"/>
  </g>
</svg>
