<svg xmlns="http://www.w3.org/2000/svg" width="100%" height="100%" viewBox="0 0 20.622 21.681">
  <g id="Group_176" data-name="Group 176" transform="translate(-1550.708 359)">
    <path id="Path_39" data-name="Path 39" d="M1731.923-359a3.536,3.536,0,0,1,1.261.465,2.89,2.89,0,0,1,1.271,1.8c.036.155.1.185.24.184.813-.006,1.626,0,2.439,0a.7.7,0,0,1,.772.689.706.706,0,0,1-.779.709c-.778,0-1.555,0-2.333,0h-.241v2.967h.219c.5,0,1,0,1.506,0a.7.7,0,0,1,.75.713.7.7,0,0,1-.756.684c-.565,0-1.13,0-1.714,0v2.97c.289,0,.583-.007.877,0a.7.7,0,0,1,.686.912.679.679,0,0,1-.652.481c-.3.006-.6,0-.929,0,0,.525,0,1.024.006,1.523,0,.063.071.132.123.184a4.33,4.33,0,0,1-1.4,7.054,4.338,4.338,0,0,1-5.983-3.585,4.219,4.219,0,0,1,1.233-3.449.456.456,0,0,0,.144-.35q-.005-5.42,0-10.839a2.931,2.931,0,0,1,2.526-3.09.2.2,0,0,0,.053-.03Zm1.215,8.689q0-2.784,0-5.567a3.324,3.324,0,0,0-.017-.359,1.524,1.524,0,0,0-2.255-1.172,1.543,1.543,0,0,0-.8,1.461q0,5.631.006,11.261a1,1,0,0,1-.376.824,2.816,2.816,0,0,0-.986,2.695,2.93,2.93,0,0,0,2.6,2.436,2.946,2.946,0,0,0,2.969-1.723,2.9,2.9,0,0,0-.766-3.4.994.994,0,0,1-.382-.842C1733.143-346.571,1733.138-348.441,1733.138-350.311Z" transform="translate(-166.575)" fill="#58C5F0"/>
    <path id="Path_40" data-name="Path 40" d="M1552.917-359c.152.05.309.09.457.151a1.915,1.915,0,0,1,1.133,2.214,1.933,1.933,0,0,1-2.007,1.477,1.936,1.936,0,0,1-1.787-1.761,1.932,1.932,0,0,1,1.494-2.034c.054-.012.106-.031.159-.047Zm-.806,1.933a.53.53,0,0,0,.532.515.538.538,0,0,0,.516-.535.532.532,0,0,0-.536-.513A.527.527,0,0,0,1552.111-357.067Z" transform="translate(0)" fill="#58C5F0"/>
    <path id="Path_41" data-name="Path 41" d="M1619.433-325.623c0,.353-.005.705,0,1.058a1.552,1.552,0,0,0,1.028,1.462,1.56,1.56,0,0,0,1.742-.416.764.764,0,0,1,.641-.309.667.667,0,0,1,.6.433.685.685,0,0,1-.14.747,3,3,0,0,1-4.155.389,2.892,2.892,0,0,1-1.12-2.3q-.012-1.069,0-2.137a2.976,2.976,0,0,1,1.915-2.745,3,3,0,0,1,3.269.746.792.792,0,0,1,.28.657.673.673,0,0,1-.478.59.649.649,0,0,1-.733-.192,1.692,1.692,0,0,0-1.065-.594,1.593,1.593,0,0,0-1.784,1.486c-.013.373,0,.748,0,1.122Z" transform="translate(-63.51 -27.7)" fill="#58C5F0"/>
    <path id="Path_42" data-name="Path 42" d="M1777.528-240.327c0,1.418,0,2.836,0,4.254a.3.3,0,0,0,.161.3,1.6,1.6,0,0,1,.692,1.82,1.623,1.623,0,0,1-1.549,1.161,1.62,1.62,0,0,1-1.553-1.156,1.588,1.588,0,0,1,.686-1.821.32.32,0,0,0,.168-.321q-.006-4.233,0-8.466a.7.7,0,0,1,.664-.774.693.693,0,0,1,.736.747q0,1.736,0,3.471Z" transform="translate(-211.799 -107.242)" fill="#58C5F0"/>
  </g>
</svg>
