<svg xmlns="http://www.w3.org/2000/svg" width="100%" height="100%" viewBox="0 0 18.612 20.651">
  <g id="Group_180" data-name="Group 180" transform="translate(-1197 883)">
    <path id="Path_56" data-name="Path 56" d="M1422.369-883a1.274,1.274,0,0,1,.572.534q1.282,1.985,2.565,3.969a1.612,1.612,0,0,1,.177.37.352.352,0,0,1-.3.5,3.323,3.323,0,0,1-.411.022c-.258.012-.517.009-.772.042a.481.481,0,0,0-.458.54c0,.88,0,1.759,0,2.639a.9.9,0,0,1-.013.18.457.457,0,0,1-.5.415c-.271,0-.543-.023-.814-.022-.353,0-.706.019-1.059.023-.37,0-.533-.167-.529-.54q.008-.678.011-1.357,0-.562,0-1.124a1.7,1.7,0,0,0-.022-.283c-.063-.35-.241-.489-.64-.5-.22-.006-.44,0-.66,0a2.243,2.243,0,0,1-.308-.026.384.384,0,0,1-.341-.533,1.18,1.18,0,0,1,.143-.3q1.3-2.011,2.607-4.019a1.221,1.221,0,0,1,.578-.529Z" transform="translate(-211.675)" fill="#dc3545"/>
    <path id="Path_57" data-name="Path 57" d="M1197-556.3a1.8,1.8,0,0,1,1.455-1.054,2.444,2.444,0,0,1,2.1.542,3.643,3.643,0,0,0,.4.279.777.777,0,0,0,.854.007,4.285,4.285,0,0,0,.437-.3,2.519,2.519,0,0,1,1.668-.584,2.542,2.542,0,0,1,1.537.59,3.936,3.936,0,0,0,.354.258.867.867,0,0,0,.995,0c.144-.093.278-.2.416-.305a2.467,2.467,0,0,1,3.173.068,3.375,3.375,0,0,0,.393.27.794.794,0,0,0,.867,0,3.923,3.923,0,0,0,.464-.326,2.485,2.485,0,0,1,3.051-.048,1.255,1.255,0,0,1,.446.628v.233c-.022.055-.041.111-.066.164a.674.674,0,0,1-.9.344,2.428,2.428,0,0,1-.336-.19,1.29,1.29,0,0,0-.617-.241,1.173,1.173,0,0,0-.806.356,2.512,2.512,0,0,1-1.054.576,2.484,2.484,0,0,1-2.277-.554,2.794,2.794,0,0,0-.3-.222.847.847,0,0,0-.971-.012c-.167.1-.32.232-.48.349a2.486,2.486,0,0,1-1.559.526,2.526,2.526,0,0,1-1.443-.526c-.132-.1-.257-.2-.393-.294a.884.884,0,0,0-1.134.01c-.128.088-.245.19-.369.283a2.435,2.435,0,0,1-3.166-.12,2.9,2.9,0,0,0-.3-.221.856.856,0,0,0-.906-.042c-.137.071-.265.16-.4.24a.694.694,0,0,1-.893-.03,1.934,1.934,0,0,1-.242-.37Z" transform="translate(0 -310.674)" fill="#dc3545"/>
    <path id="Path_58" data-name="Path 58" d="M1215.612-627.713c-.02.046-.039.093-.061.139a.672.672,0,0,1-.912.337,2.369,2.369,0,0,1-.335-.192,1.251,1.251,0,0,0-.607-.232,1.032,1.032,0,0,0-.7.266,3.3,3.3,0,0,1-1.142.637,2.419,2.419,0,0,1-2.177-.451c-.115-.084-.223-.178-.34-.257a.931.931,0,0,0-1.143,0c-.178.12-.339.267-.518.386a2.4,2.4,0,0,1-3.006-.19,3.276,3.276,0,0,0-.3-.224.916.916,0,0,0-1.055,0c-.17.109-.324.243-.49.357a2.552,2.552,0,0,1-1.336.494,2.182,2.182,0,0,1-1.176-.277c-.21-.116-.4-.262-.6-.4-.043-.029-.081-.064-.123-.095a.955.955,0,0,0-1.228-.049,2.691,2.691,0,0,1-.427.238.663.663,0,0,1-.893-.4c-.012-.031-.03-.059-.045-.089v-.336a.992.992,0,0,1,.567-.6c.444-.2.892-.38,1.333-.536h0a.826.826,0,0,0,.209.076,2.546,2.546,0,0,1,1.513.652,1.26,1.26,0,0,0,.633.329,1.126,1.126,0,0,0,.909-.312,2.945,2.945,0,0,1,1.177-.619,2.307,2.307,0,0,1,1.834.346,4.7,4.7,0,0,1,.4.289,1.029,1.029,0,0,0,1.47,0,2.993,2.993,0,0,1,1.184-.633,2.365,2.365,0,0,1,1.944.411c.114.077.222.163.332.247a1.039,1.039,0,0,0,1.462-.031,2.667,2.667,0,0,1,1.317-.641,2.258,2.258,0,0,1,2.157.733,1.534,1.534,0,0,1,.175.339Z" transform="translate(0 -242.137)" fill="#dc3545"/>
    <path id="Path_59" data-name="Path 59" d="M1197-484.947a1.771,1.771,0,0,1,1.373-1.056,2.389,2.389,0,0,1,2.085.459c.173.128.348.255.529.37a.719.719,0,0,0,.817,0c.164-.1.325-.213.478-.331a2.449,2.449,0,0,1,3.176.036,3.972,3.972,0,0,0,.411.291.765.765,0,0,0,.844.013,4.373,4.373,0,0,0,.476-.332,2.454,2.454,0,0,1,3.126-.019,5.993,5.993,0,0,0,.508.355.692.692,0,0,0,.771,0c.2-.121.389-.255.574-.4a2.446,2.446,0,0,1,3.071.06,1.131,1.131,0,0,1,.372.6v.181a.61.61,0,0,0-.03.067.677.677,0,0,1-.953.446,1.782,1.782,0,0,1-.288-.17,1,1,0,0,0-1.322-.018l-.022.014c-.288.163-.57.339-.866.486a1.766,1.766,0,0,1-1.22.266.328.328,0,0,1-.147-.035c-.476-.261-.954-.518-1.423-.79a1.055,1.055,0,0,0-1.191.018c-.257.166-.531.308-.777.488a1.543,1.543,0,0,1-1.155.323c-.106-.014-.216,0-.323,0a.489.489,0,0,1-.2-.055c-.415-.247-.829-.495-1.236-.753a1.044,1.044,0,0,0-1.2,0c-.425.263-.857.514-1.288.767a.359.359,0,0,1-.169.046c-.289,0-.578.005-.867,0a.371.371,0,0,1-.179-.052c-.4-.246-.8-.5-1.195-.747a1.015,1.015,0,0,0-1.282.036,1.751,1.751,0,0,1-.409.214.57.57,0,0,1-.683-.2,2.43,2.43,0,0,1-.184-.32Z" transform="translate(0 -378.742)" fill="#dc3545"/>
    <path id="Path_60" data-name="Path 60" d="M1236.109-880.626c0,.414,0,.828,0,1.242a1.546,1.546,0,0,0,.031.295.472.472,0,0,0,.445.416c.183.021.369.013.554.022a4.542,4.542,0,0,1,.6.037.384.384,0,0,1,.285.627c-.191.327-.4.645-.6.963q-1.128,1.732-2.261,3.461a1.347,1.347,0,0,1-.093.124.515.515,0,0,1-.765.061,1.029,1.029,0,0,1-.174-.207q-1.4-2.149-2.793-4.3a.491.491,0,0,1-.092-.518.534.534,0,0,1,.512-.238c.3-.011.594-.007.89-.025a.5.5,0,0,0,.534-.562c.011-.517.012-1.034.016-1.551,0-.41.006-.819.01-1.229,0-.321.1-.424.425-.437.151-.006.3,0,.453,0h1.424c.482,0,.588.1.592.58,0,.414,0,.828,0,1.242Z" transform="translate(-32.638 -0.525)" fill="#dc3545"/>
  </g>
</svg>
