<svg xmlns="http://www.w3.org/2000/svg" width="100%" height="100%" viewBox="0 0 21 21">
  <g id="Group_179" data-name="Group 179" transform="translate(-1851 699)">
    <path id="Path_50" data-name="Path 50" d="M1866.094-699h.7c.145.034.291.064.434.1a3.091,3.091,0,0,1,2.3,3.045q.007,2.939,0,5.878a.433.433,0,0,0,.183.379,2.419,2.419,0,0,0,1.511.547.769.769,0,0,1,.781.468v.328a.752.752,0,0,1-.87.445,4.558,4.558,0,0,1-.507-.068c-.36-.093-.716-.2-1.084-.312,0,.043-.01.1-.01.16,0,.424-.009.848.005,1.271a.451.451,0,0,0,.129.292,4.848,4.848,0,0,1-1.719,8.219c-.347.114-.714.166-1.072.247h-.861a.922.922,0,0,0-.137-.036,4.621,4.621,0,0,1-1.563-.46,4.843,4.843,0,0,1-1.08-7.978c.048-.043.112-.1.113-.157.009-.524.005-1.048.005-1.569-.033-.005-.047-.011-.058-.008a.753.753,0,0,0-.075.031,3.989,3.989,0,0,1-4.078-.4.162.162,0,0,0-.228.008,3.957,3.957,0,0,1-3.466.608,3.734,3.734,0,0,1-1.352-.688c-.036.023-.061.036-.082.052a3.989,3.989,0,0,1-2.059.781.809.809,0,0,1-.952-.442v-.328a.772.772,0,0,1,.762-.467,2.464,2.464,0,0,0,1.8-.8.629.629,0,0,1,1.047-.007,2.7,2.7,0,0,0,3.9-.006.629.629,0,0,1,1.036,0,2.726,2.726,0,0,0,3.618.273.444.444,0,0,0,.191-.394q-.01-2.963,0-5.926a3.085,3.085,0,0,1,2.3-2.987C1865.8-698.937,1865.948-698.967,1866.094-699Zm-1.507,10.813V-688c0,.519-.013,1.039,0,1.558a.851.851,0,0,1-.376.765,3.584,3.584,0,0,0-1.034,4.37,3.6,3.6,0,0,0,4.1,1.966,3.446,3.446,0,0,0,2.688-2.788,3.463,3.463,0,0,0-1.34-3.58.793.793,0,0,1-.337-.681c.011-.533,0-1.066,0-1.6,0-.072-.006-.144-.009-.2-.353.106-.688.219-1.029.3-.144.036-.2.08-.2.237q.012,1.322,0,2.645a.3.3,0,0,0,.209.334,1.923,1.923,0,0,1,1.193,1.81,1.9,1.9,0,0,1-1.125,1.832,1.917,1.917,0,0,1-2.139-.222,2.018,2.018,0,0,1,.449-3.443c.072-.032.17-.118.171-.18.011-.95.009-1.9,0-2.85a.186.186,0,0,0-.1-.138C1865.35-687.974,1864.983-688.074,1864.587-688.187Zm2.471-.917a2.468,2.468,0,0,0,1.071-.506.4.4,0,0,0,.167-.346c-.006-1.94,0-3.881-.006-5.821a2.472,2.472,0,0,0-.047-.529,1.846,1.846,0,0,0-1.957-1.453,1.843,1.843,0,0,0-1.695,1.86c-.013,2,0,4,0,6.005a.277.277,0,0,0,.061.183,2.3,2.3,0,0,0,1.169.605v-.26q0-2.746,0-5.493a1.624,1.624,0,0,1,.018-.285.607.607,0,0,1,.53-.495.6.6,0,0,1,.645.4,1.2,1.2,0,0,1,.042.363q0,2.746,0,5.493Zm-.613,7.053a.786.786,0,0,0,.783-.782.789.789,0,0,0-.782-.785.791.791,0,0,0-.794.794A.788.788,0,0,0,1866.445-682.052Z" fill="#dc3545"/>
    <path id="Path_51" data-name="Path 51" d="M2006.685-665.157a2.221,2.221,0,0,1-.623,1.536.625.625,0,0,1-.882.051.615.615,0,0,1-.041-.867.992.992,0,0,0-.031-1.478,2.221,2.221,0,0,1,0-3.031.63.63,0,0,1,.9-.08.624.624,0,0,1,.029.9.977.977,0,0,0,.032,1.43A2.267,2.267,0,0,1,2006.685-665.157Z" transform="translate(-145.116 -28.192)" fill="#dc3545"/>
    <path id="Path_52" data-name="Path 52" d="M1889.143-663.4a.645.645,0,0,1-.652-.367.6.6,0,0,1,.119-.684.951.951,0,0,0,.224-1.04,1.561,1.561,0,0,0-.308-.451,2.223,2.223,0,0,1,.054-3.016.627.627,0,0,1,.882-.059.617.617,0,0,1,.035.882.991.991,0,0,0,.036,1.462,2.211,2.211,0,0,1-.012,3.042A1.455,1.455,0,0,1,1889.143-663.4Z" transform="translate(-34.942 -28.197)" fill="#dc3545"/>
    <path id="Path_53" data-name="Path 53" d="M1947.4-663.4a.641.641,0,0,1-.654-.35.6.6,0,0,1,.115-.7.937.937,0,0,0,.241-.981,1.555,1.555,0,0,0-.315-.494,2.219,2.219,0,0,1,.016-3,.633.633,0,0,1,.911-.084.63.63,0,0,1,.015.9.987.987,0,0,0,.044,1.431,2.2,2.2,0,0,1,0,3.056A1.433,1.433,0,0,1,1947.4-663.4Z" transform="translate(-90.003 -28.197)" fill="#dc3545"/>
    <path id="Path_54" data-name="Path 54" d="M1953.215-466.77a1.849,1.849,0,0,1,1.857,1.843,1.857,1.857,0,0,1-1.844,1.86,1.853,1.853,0,0,1-1.855-1.847A1.842,1.842,0,0,1,1953.215-466.77Zm-.608,1.846a.622.622,0,0,0,.605.623.631.631,0,0,0,.626-.626.615.615,0,0,0-.619-.606A.609.609,0,0,0,1952.607-464.925Z" transform="translate(-94.884 -219.53)" fill="#dc3545"/>
    <path id="Path_55" data-name="Path 55" d="M1874.607-413.46a1.841,1.841,0,0,1,1.846,1.851,1.851,1.851,0,0,1-1.851,1.85,1.858,1.858,0,0,1-1.849-1.855A1.849,1.849,0,0,1,1874.607-413.46Zm.611,1.842a.609.609,0,0,0-.615-.606.616.616,0,0,0-.617.609.632.632,0,0,0,.63.623A.62.62,0,0,0,1875.218-411.618Z" transform="translate(-20.564 -269.924)" fill="#dc3545"/>
  </g>
</svg>
