<?xml version="1.0" encoding="UTF-8" standalone="no"?>
<!DOCTYPE svg PUBLIC "-//W3C//DTD SVG 1.1//EN"
 "http://www.w3.org/Graphics/SVG/1.1/DTD/svg11.dtd">
<!-- Generated by graphviz version 3.0.0 (20220226.1711)
 -->
<!-- Title: dependencies Pages: 1 -->
<svg width="1081pt" height="247pt"
 viewBox="0.00 0.00 1081.00 246.80" xmlns="http://www.w3.org/2000/svg" xmlns:xlink="http://www.w3.org/1999/xlink">
<g id="graph0" class="graph" transform="scale(1 1) rotate(0) translate(4 242.8)">
<title>dependencies</title>
<polygon fill="white" stroke="transparent" points="-4,4 -4,-242.8 1077,-242.8 1077,4 -4,4"/>
<text text-anchor="middle" x="536.5" y="-8.2" font-family="sans-serif" font-size="14.00">dependencies</text>
<g id="clust1" class="cluster">
<title>cluster_SharedModule</title>
<polygon fill="none" stroke="black" stroke-dasharray="1,5" points="8,-32.8 8,-230.8 1065,-230.8 1065,-32.8 8,-32.8"/>
</g>
<g id="clust9" class="cluster">
<title>cluster_SharedModule_imports</title>
<polygon fill="none" stroke="black" points="951,-40.8 951,-92.8 1051,-92.8 1051,-40.8 951,-40.8"/>
</g>
<g id="clust10" class="cluster">
<title>cluster_SharedModule_exports</title>
<polygon fill="none" stroke="black" points="16,-170.8 16,-222.8 1057,-222.8 1057,-170.8 16,-170.8"/>
</g>
<g id="clust2" class="cluster">
<title>cluster_SharedModule_declarations</title>
<polygon fill="none" stroke="black" points="29,-40.8 29,-92.8 943,-92.8 943,-40.8 29,-40.8"/>
</g>
<!-- AuthComponent -->
<g id="node1" class="node">
<title>AuthComponent</title>
<polygon fill="#ffffb3" stroke="black" points="934.83,-84.8 825.17,-84.8 825.17,-48.8 934.83,-48.8 934.83,-84.8"/>
<text text-anchor="middle" x="880" y="-62.6" font-family="Times,serif" font-size="14.00">AuthComponent</text>
</g>
<!-- SharedModule -->
<g id="node7" class="node">
<title>SharedModule</title>
<polygon fill="#8dd3c7" stroke="black" points="639.43,-149.8 636.43,-153.8 615.43,-153.8 612.43,-149.8 540.57,-149.8 540.57,-113.8 639.43,-113.8 639.43,-149.8"/>
<text text-anchor="middle" x="590" y="-127.6" font-family="Times,serif" font-size="14.00">SharedModule</text>
</g>
<!-- AuthComponent&#45;&gt;SharedModule -->
<g id="edge1" class="edge">
<title>AuthComponent&#45;&gt;SharedModule</title>
<path fill="none" stroke="black" d="M871.98,-84.83C871.98,-101.86 871.98,-124.8 871.98,-124.8 871.98,-124.8 649.44,-124.8 649.44,-124.8"/>
<polygon fill="black" stroke="black" points="649.44,-121.3 639.44,-124.8 649.44,-128.3 649.44,-121.3"/>
</g>
<!-- HeaderComponent -->
<g id="node2" class="node">
<title>HeaderComponent</title>
<polygon fill="#ffffb3" stroke="black" points="806.75,-84.8 685.25,-84.8 685.25,-48.8 806.75,-48.8 806.75,-84.8"/>
<text text-anchor="middle" x="746" y="-62.6" font-family="Times,serif" font-size="14.00">HeaderComponent</text>
</g>
<!-- HeaderComponent&#45;&gt;SharedModule -->
<g id="edge2" class="edge">
<title>HeaderComponent&#45;&gt;SharedModule</title>
<path fill="none" stroke="black" d="M716.35,-85.04C716.35,-100.37 716.35,-119.8 716.35,-119.8 716.35,-119.8 649.57,-119.8 649.57,-119.8"/>
<polygon fill="black" stroke="black" points="649.57,-116.3 639.57,-119.8 649.57,-123.3 649.57,-116.3"/>
</g>
<!-- MessageBoxComponent -->
<g id="node3" class="node">
<title>MessageBoxComponent</title>
<polygon fill="#ffffb3" stroke="black" points="666.66,-84.8 513.34,-84.8 513.34,-48.8 666.66,-48.8 666.66,-84.8"/>
<text text-anchor="middle" x="590" y="-62.6" font-family="Times,serif" font-size="14.00">MessageBoxComponent</text>
</g>
<!-- MessageBoxComponent&#45;&gt;SharedModule -->
<g id="edge3" class="edge">
<title>MessageBoxComponent&#45;&gt;SharedModule</title>
<path fill="none" stroke="black" d="M590,-84.91C590,-84.91 590,-103.79 590,-103.79"/>
<polygon fill="black" stroke="black" points="586.5,-103.79 590,-113.79 593.5,-103.79 586.5,-103.79"/>
</g>
<!-- ModalComponent -->
<g id="node4" class="node">
<title>ModalComponent</title>
<polygon fill="#ffffb3" stroke="black" points="494.88,-84.8 377.12,-84.8 377.12,-48.8 494.88,-48.8 494.88,-84.8"/>
<text text-anchor="middle" x="436" y="-62.6" font-family="Times,serif" font-size="14.00">ModalComponent</text>
</g>
<!-- ModalComponent&#45;&gt;SharedModule -->
<g id="edge4" class="edge">
<title>ModalComponent&#45;&gt;SharedModule</title>
<path fill="none" stroke="black" d="M454.81,-85.04C454.81,-100.37 454.81,-119.8 454.81,-119.8 454.81,-119.8 530.43,-119.8 530.43,-119.8"/>
<polygon fill="black" stroke="black" points="530.43,-123.3 540.43,-119.8 530.43,-116.3 530.43,-123.3"/>
</g>
<!-- SessionWindowComponent -->
<g id="node5" class="node">
<title>SessionWindowComponent</title>
<polygon fill="#ffffb3" stroke="black" points="359.33,-84.8 186.67,-84.8 186.67,-48.8 359.33,-48.8 359.33,-84.8"/>
<text text-anchor="middle" x="273" y="-62.6" font-family="Times,serif" font-size="14.00">SessionWindowComponent</text>
</g>
<!-- SessionWindowComponent&#45;&gt;SharedModule -->
<g id="edge5" class="edge">
<title>SessionWindowComponent&#45;&gt;SharedModule</title>
<path fill="none" stroke="black" d="M298.22,-84.83C298.22,-101.86 298.22,-124.8 298.22,-124.8 298.22,-124.8 530.5,-124.8 530.5,-124.8"/>
<polygon fill="black" stroke="black" points="530.5,-128.3 540.5,-124.8 530.5,-121.3 530.5,-128.3"/>
</g>
<!-- StatisticsComponent -->
<g id="node6" class="node">
<title>StatisticsComponent</title>
<polygon fill="#ffffb3" stroke="black" points="168.89,-84.8 37.11,-84.8 37.11,-48.8 168.89,-48.8 168.89,-84.8"/>
<text text-anchor="middle" x="103" y="-62.6" font-family="Times,serif" font-size="14.00">StatisticsComponent</text>
</g>
<!-- StatisticsComponent&#45;&gt;SharedModule -->
<g id="edge6" class="edge">
<title>StatisticsComponent&#45;&gt;SharedModule</title>
<path fill="none" stroke="black" d="M164.32,-85.02C164.32,-103.63 164.32,-129.8 164.32,-129.8 164.32,-129.8 530.75,-129.8 530.75,-129.8"/>
<polygon fill="black" stroke="black" points="530.75,-133.3 540.75,-129.8 530.75,-126.3 530.75,-133.3"/>
</g>
<!-- AuthComponent  -->
<g id="node9" class="node">
<title>AuthComponent </title>
<polygon fill="#fb8072" stroke="black" points="1049.33,-214.8 936.67,-214.8 936.67,-178.8 1049.33,-178.8 1049.33,-214.8"/>
<text text-anchor="middle" x="993" y="-192.6" font-family="Times,serif" font-size="14.00">AuthComponent </text>
</g>
<!-- SharedModule&#45;&gt;AuthComponent  -->
<g id="edge8" class="edge">
<title>SharedModule&#45;&gt;AuthComponent </title>
<path fill="none" stroke="black" stroke-dasharray="5,2" d="M639.36,-134.8C737.48,-134.8 947.69,-134.8 947.69,-134.8 947.69,-134.8 947.69,-168.53 947.69,-168.53"/>
<polygon fill="black" stroke="black" points="944.19,-168.53 947.69,-178.53 951.19,-168.53 944.19,-168.53"/>
</g>
<!-- HeaderComponent  -->
<g id="node10" class="node">
<title>HeaderComponent </title>
<polygon fill="#fb8072" stroke="black" points="918.75,-214.8 793.25,-214.8 793.25,-178.8 918.75,-178.8 918.75,-214.8"/>
<text text-anchor="middle" x="856" y="-192.6" font-family="Times,serif" font-size="14.00">HeaderComponent </text>
</g>
<!-- SharedModule&#45;&gt;HeaderComponent  -->
<g id="edge9" class="edge">
<title>SharedModule&#45;&gt;HeaderComponent </title>
<path fill="none" stroke="black" stroke-dasharray="5,2" d="M639.26,-139.8C701.37,-139.8 800.12,-139.8 800.12,-139.8 800.12,-139.8 800.12,-168.76 800.12,-168.76"/>
<polygon fill="black" stroke="black" points="796.63,-168.76 800.12,-178.76 803.63,-168.76 796.63,-168.76"/>
</g>
<!-- IconModule  -->
<g id="node11" class="node">
<title>IconModule </title>
<polygon fill="#fb8072" stroke="black" points="774.93,-214.8 687.07,-214.8 687.07,-178.8 774.93,-178.8 774.93,-214.8"/>
<text text-anchor="middle" x="731" y="-192.6" font-family="Times,serif" font-size="14.00">IconModule </text>
</g>
<!-- SharedModule&#45;&gt;IconModule  -->
<g id="edge10" class="edge">
<title>SharedModule&#45;&gt;IconModule </title>
<path fill="none" stroke="black" stroke-dasharray="5,2" d="M639.25,-144.8C684.85,-144.8 745.65,-144.8 745.65,-144.8 745.65,-144.8 745.65,-168.61 745.65,-168.61"/>
<polygon fill="black" stroke="black" points="742.15,-168.61 745.65,-178.61 749.15,-168.61 742.15,-168.61"/>
</g>
<!-- MessageBoxComponent  -->
<g id="node12" class="node">
<title>MessageBoxComponent </title>
<polygon fill="#fb8072" stroke="black" points="668.66,-214.8 511.34,-214.8 511.34,-178.8 668.66,-178.8 668.66,-214.8"/>
<text text-anchor="middle" x="590" y="-192.6" font-family="Times,serif" font-size="14.00">MessageBoxComponent </text>
</g>
<!-- SharedModule&#45;&gt;MessageBoxComponent  -->
<g id="edge11" class="edge">
<title>SharedModule&#45;&gt;MessageBoxComponent </title>
<path fill="none" stroke="black" stroke-dasharray="5,2" d="M590,-149.91C590,-149.91 590,-168.79 590,-168.79"/>
<polygon fill="black" stroke="black" points="586.5,-168.79 590,-178.79 593.5,-168.79 586.5,-168.79"/>
</g>
<!-- ModalComponent  -->
<g id="node13" class="node">
<title>ModalComponent </title>
<polygon fill="#fb8072" stroke="black" points="493.88,-214.8 372.12,-214.8 372.12,-178.8 493.88,-178.8 493.88,-214.8"/>
<text text-anchor="middle" x="433" y="-192.6" font-family="Times,serif" font-size="14.00">ModalComponent </text>
</g>
<!-- SharedModule&#45;&gt;ModalComponent  -->
<g id="edge12" class="edge">
<title>SharedModule&#45;&gt;ModalComponent </title>
<path fill="none" stroke="black" stroke-dasharray="5,2" d="M540.59,-144.8C489.13,-144.8 415.94,-144.8 415.94,-144.8 415.94,-144.8 415.94,-168.61 415.94,-168.61"/>
<polygon fill="black" stroke="black" points="412.44,-168.61 415.94,-178.61 419.44,-168.61 412.44,-168.61"/>
</g>
<!-- SessionWindowComponent  -->
<g id="node14" class="node">
<title>SessionWindowComponent </title>
<polygon fill="#fb8072" stroke="black" points="353.83,-214.8 178.17,-214.8 178.17,-178.8 353.83,-178.8 353.83,-214.8"/>
<text text-anchor="middle" x="266" y="-192.6" font-family="Times,serif" font-size="14.00">SessionWindowComponent </text>
</g>
<!-- SharedModule&#45;&gt;SessionWindowComponent  -->
<g id="edge13" class="edge">
<title>SharedModule&#45;&gt;SessionWindowComponent </title>
<path fill="none" stroke="black" stroke-dasharray="5,2" d="M540.58,-139.8C444.65,-139.8 242.53,-139.8 242.53,-139.8 242.53,-139.8 242.53,-168.76 242.53,-168.76"/>
<polygon fill="black" stroke="black" points="239.03,-168.76 242.53,-178.76 246.03,-168.76 239.03,-168.76"/>
</g>
<!-- StatisticsComponent  -->
<g id="node15" class="node">
<title>StatisticsComponent </title>
<polygon fill="#fb8072" stroke="black" points="159.89,-214.8 24.11,-214.8 24.11,-178.8 159.89,-178.8 159.89,-214.8"/>
<text text-anchor="middle" x="92" y="-192.6" font-family="Times,serif" font-size="14.00">StatisticsComponent </text>
</g>
<!-- SharedModule&#45;&gt;StatisticsComponent  -->
<g id="edge14" class="edge">
<title>SharedModule&#45;&gt;StatisticsComponent </title>
<path fill="none" stroke="black" stroke-dasharray="5,2" d="M540.61,-134.8C415.94,-134.8 98.38,-134.8 98.38,-134.8 98.38,-134.8 98.38,-168.53 98.38,-168.53"/>
<polygon fill="black" stroke="black" points="94.88,-168.53 98.38,-178.53 101.88,-168.53 94.88,-168.53"/>
</g>
<!-- IconModule -->
<g id="node8" class="node">
<title>IconModule</title>
<polygon fill="#8dd3c7" stroke="black" points="1043.43,-84.8 1040.43,-88.8 1019.43,-88.8 1016.43,-84.8 958.57,-84.8 958.57,-48.8 1043.43,-48.8 1043.43,-84.8"/>
<text text-anchor="middle" x="1001" y="-62.6" font-family="Times,serif" font-size="14.00">IconModule</text>
</g>
<!-- IconModule&#45;&gt;SharedModule -->
<g id="edge7" class="edge">
<title>IconModule&#45;&gt;SharedModule</title>
<path fill="none" stroke="black" d="M1001,-85.02C1001,-103.63 1001,-129.8 1001,-129.8 1001,-129.8 649.58,-129.8 649.58,-129.8"/>
<polygon fill="black" stroke="black" points="649.58,-126.3 639.58,-129.8 649.58,-133.3 649.58,-126.3"/>
</g>
</g>
</svg>
