<?xml version="1.0" encoding="UTF-8" standalone="no"?>
<!DOCTYPE svg PUBLIC "-//W3C//DTD SVG 1.1//EN"
 "http://www.w3.org/Graphics/SVG/1.1/DTD/svg11.dtd">
<!-- Generated by graphviz version 3.0.0 (20220226.1711)
 -->
<!-- Title: dependencies Pages: 1 -->
<svg width="430pt" height="174pt"
 viewBox="0.00 0.00 430.00 173.80" xmlns="http://www.w3.org/2000/svg" xmlns:xlink="http://www.w3.org/1999/xlink">
<g id="graph0" class="graph" transform="scale(1 1) rotate(0) translate(4 169.8)">
<title>dependencies</title>
<polygon fill="white" stroke="transparent" points="-4,4 -4,-169.8 426,-169.8 426,4 -4,4"/>
<text text-anchor="middle" x="211" y="-8.2" font-family="sans-serif" font-size="14.00">dependencies</text>
<g id="clust1" class="cluster">
<title>cluster_PageModule</title>
<polygon fill="none" stroke="black" stroke-dasharray="1,5" points="8,-32.8 8,-157.8 414,-157.8 414,-32.8 8,-32.8"/>
</g>
<g id="clust5" class="cluster">
<title>cluster_PageModule_imports</title>
<polygon fill="none" stroke="black" points="292,-40.8 292,-92.8 406,-92.8 406,-40.8 292,-40.8"/>
</g>
<g id="clust2" class="cluster">
<title>cluster_PageModule_declarations</title>
<polygon fill="none" stroke="black" points="16,-40.8 16,-92.8 284,-92.8 284,-40.8 16,-40.8"/>
</g>
<!-- HomeComponent -->
<g id="node1" class="node">
<title>HomeComponent</title>
<polygon fill="#ffffb3" stroke="black" points="275.55,-84.8 160.45,-84.8 160.45,-48.8 275.55,-48.8 275.55,-84.8"/>
<text text-anchor="middle" x="218" y="-62.6" font-family="Times,serif" font-size="14.00">HomeComponent</text>
</g>
<!-- PageModule -->
<g id="node3" class="node">
<title>PageModule</title>
<polygon fill="#8dd3c7" stroke="black" points="261.27,-149.8 258.27,-153.8 237.27,-153.8 234.27,-149.8 174.73,-149.8 174.73,-113.8 261.27,-113.8 261.27,-149.8"/>
<text text-anchor="middle" x="218" y="-127.6" font-family="Times,serif" font-size="14.00">PageModule</text>
</g>
<!-- HomeComponent&#45;&gt;PageModule -->
<g id="edge1" class="edge">
<title>HomeComponent&#45;&gt;PageModule</title>
<path fill="none" stroke="black" d="M218,-84.91C218,-84.91 218,-103.79 218,-103.79"/>
<polygon fill="black" stroke="black" points="214.5,-103.79 218,-113.79 221.5,-103.79 214.5,-103.79"/>
</g>
<!-- SigninComponent -->
<g id="node2" class="node">
<title>SigninComponent</title>
<polygon fill="#ffffb3" stroke="black" points="141.9,-84.8 24.1,-84.8 24.1,-48.8 141.9,-48.8 141.9,-84.8"/>
<text text-anchor="middle" x="83" y="-62.6" font-family="Times,serif" font-size="14.00">SigninComponent</text>
</g>
<!-- SigninComponent&#45;&gt;PageModule -->
<g id="edge2" class="edge">
<title>SigninComponent&#45;&gt;PageModule</title>
<path fill="none" stroke="black" d="M83,-84.91C83,-104.14 83,-131.8 83,-131.8 83,-131.8 164.54,-131.8 164.54,-131.8"/>
<polygon fill="black" stroke="black" points="164.54,-135.3 174.54,-131.8 164.54,-128.3 164.54,-135.3"/>
</g>
<!-- SharedModule -->
<g id="node4" class="node">
<title>SharedModule</title>
<polygon fill="#8dd3c7" stroke="black" points="398.43,-84.8 395.43,-88.8 374.43,-88.8 371.43,-84.8 299.57,-84.8 299.57,-48.8 398.43,-48.8 398.43,-84.8"/>
<text text-anchor="middle" x="349" y="-62.6" font-family="Times,serif" font-size="14.00">SharedModule</text>
</g>
<!-- SharedModule&#45;&gt;PageModule -->
<g id="edge3" class="edge">
<title>SharedModule&#45;&gt;PageModule</title>
<path fill="none" stroke="black" d="M349,-84.91C349,-104.14 349,-131.8 349,-131.8 349,-131.8 271.62,-131.8 271.62,-131.8"/>
<polygon fill="black" stroke="black" points="271.62,-128.3 261.62,-131.8 271.62,-135.3 271.62,-128.3"/>
</g>
</g>
</svg>
