<?xml version="1.0" encoding="UTF-8" standalone="no"?>
<!DOCTYPE svg PUBLIC "-//W3C//DTD SVG 1.1//EN"
 "http://www.w3.org/Graphics/SVG/1.1/DTD/svg11.dtd">
<!-- Generated by graphviz version 3.0.0 (20220226.1711)
 -->
<!-- Title: dependencies Pages: 1 -->
<svg width="974pt" height="247pt"
 viewBox="0.00 0.00 974.00 246.80" xmlns="http://www.w3.org/2000/svg" xmlns:xlink="http://www.w3.org/1999/xlink">
<g id="graph0" class="graph" transform="scale(1 1) rotate(0) translate(4 242.8)">
<title>dependencies</title>
<polygon fill="white" stroke="transparent" points="-4,4 -4,-242.8 970,-242.8 970,4 -4,4"/>
<text text-anchor="middle" x="483" y="-8.2" font-family="sans-serif" font-size="14.00">dependencies</text>
<g id="clust1" class="cluster">
<title>cluster_IconModule</title>
<polygon fill="none" stroke="black" stroke-dasharray="1,5" points="8,-32.8 8,-230.8 958,-230.8 958,-32.8 8,-32.8"/>
</g>
<g id="clust10" class="cluster">
<title>cluster_IconModule_exports</title>
<polygon fill="none" stroke="black" points="16,-170.8 16,-222.8 950,-222.8 950,-170.8 16,-170.8"/>
</g>
<g id="clust2" class="cluster">
<title>cluster_IconModule_declarations</title>
<polygon fill="none" stroke="black" points="28,-40.8 28,-92.8 942,-92.8 942,-40.8 28,-40.8"/>
</g>
<!-- AuthComponent -->
<g id="node1" class="node">
<title>AuthComponent</title>
<polygon fill="#ffffb3" stroke="black" points="933.83,-84.8 824.17,-84.8 824.17,-48.8 933.83,-48.8 933.83,-84.8"/>
<text text-anchor="middle" x="879" y="-62.6" font-family="Times,serif" font-size="14.00">AuthComponent</text>
</g>
<!-- IconModule -->
<g id="node7" class="node">
<title>IconModule</title>
<polygon fill="#8dd3c7" stroke="black" points="482.43,-149.8 479.43,-153.8 458.43,-153.8 455.43,-149.8 397.57,-149.8 397.57,-113.8 482.43,-113.8 482.43,-149.8"/>
<text text-anchor="middle" x="440" y="-127.6" font-family="Times,serif" font-size="14.00">IconModule</text>
</g>
<!-- AuthComponent&#45;&gt;IconModule -->
<g id="edge1" class="edge">
<title>AuthComponent&#45;&gt;IconModule</title>
<path fill="none" stroke="black" d="M898.97,-85.02C898.97,-103.63 898.97,-129.8 898.97,-129.8 898.97,-129.8 492.36,-129.8 492.36,-129.8"/>
<polygon fill="black" stroke="black" points="492.36,-126.3 482.36,-129.8 492.36,-133.3 492.36,-126.3"/>
</g>
<!-- HeaderComponent -->
<g id="node2" class="node">
<title>HeaderComponent</title>
<polygon fill="#ffffb3" stroke="black" points="805.75,-84.8 684.25,-84.8 684.25,-48.8 805.75,-48.8 805.75,-84.8"/>
<text text-anchor="middle" x="745" y="-62.6" font-family="Times,serif" font-size="14.00">HeaderComponent</text>
</g>
<!-- HeaderComponent&#45;&gt;IconModule -->
<g id="edge2" class="edge">
<title>HeaderComponent&#45;&gt;IconModule</title>
<path fill="none" stroke="black" d="M766.04,-84.83C766.04,-101.86 766.04,-124.8 766.04,-124.8 766.04,-124.8 492.29,-124.8 492.29,-124.8"/>
<polygon fill="black" stroke="black" points="492.29,-121.3 482.29,-124.8 492.29,-128.3 492.29,-121.3"/>
</g>
<!-- MessageBoxComponent -->
<g id="node3" class="node">
<title>MessageBoxComponent</title>
<polygon fill="#ffffb3" stroke="black" points="665.66,-84.8 512.34,-84.8 512.34,-48.8 665.66,-48.8 665.66,-84.8"/>
<text text-anchor="middle" x="589" y="-62.6" font-family="Times,serif" font-size="14.00">MessageBoxComponent</text>
</g>
<!-- MessageBoxComponent&#45;&gt;IconModule -->
<g id="edge3" class="edge">
<title>MessageBoxComponent&#45;&gt;IconModule</title>
<path fill="none" stroke="black" d="M614.61,-85.04C614.61,-100.37 614.61,-119.8 614.61,-119.8 614.61,-119.8 492.27,-119.8 492.27,-119.8"/>
<polygon fill="black" stroke="black" points="492.27,-116.3 482.27,-119.8 492.27,-123.3 492.27,-116.3"/>
</g>
<!-- ModalComponent -->
<g id="node4" class="node">
<title>ModalComponent</title>
<polygon fill="#ffffb3" stroke="black" points="493.88,-84.8 376.12,-84.8 376.12,-48.8 493.88,-48.8 493.88,-84.8"/>
<text text-anchor="middle" x="435" y="-62.6" font-family="Times,serif" font-size="14.00">ModalComponent</text>
</g>
<!-- ModalComponent&#45;&gt;IconModule -->
<g id="edge4" class="edge">
<title>ModalComponent&#45;&gt;IconModule</title>
<path fill="none" stroke="black" d="M440,-84.91C440,-84.91 440,-103.79 440,-103.79"/>
<polygon fill="black" stroke="black" points="436.5,-103.79 440,-113.79 443.5,-103.79 436.5,-103.79"/>
</g>
<!-- SessionWindowComponent -->
<g id="node5" class="node">
<title>SessionWindowComponent</title>
<polygon fill="#ffffb3" stroke="black" points="358.33,-84.8 185.67,-84.8 185.67,-48.8 358.33,-48.8 358.33,-84.8"/>
<text text-anchor="middle" x="272" y="-62.6" font-family="Times,serif" font-size="14.00">SessionWindowComponent</text>
</g>
<!-- SessionWindowComponent&#45;&gt;IconModule -->
<g id="edge5" class="edge">
<title>SessionWindowComponent&#45;&gt;IconModule</title>
<path fill="none" stroke="black" d="M297.89,-84.81C297.89,-100.85 297.89,-121.8 297.89,-121.8 297.89,-121.8 387.75,-121.8 387.75,-121.8"/>
<polygon fill="black" stroke="black" points="387.75,-125.3 397.75,-121.8 387.75,-118.3 387.75,-125.3"/>
</g>
<!-- StatisticsComponent -->
<g id="node6" class="node">
<title>StatisticsComponent</title>
<polygon fill="#ffffb3" stroke="black" points="167.89,-84.8 36.11,-84.8 36.11,-48.8 167.89,-48.8 167.89,-84.8"/>
<text text-anchor="middle" x="102" y="-62.6" font-family="Times,serif" font-size="14.00">StatisticsComponent</text>
</g>
<!-- StatisticsComponent&#45;&gt;IconModule -->
<g id="edge6" class="edge">
<title>StatisticsComponent&#45;&gt;IconModule</title>
<path fill="none" stroke="black" d="M163.82,-85.07C163.82,-103.36 163.82,-128.8 163.82,-128.8 163.82,-128.8 387.75,-128.8 387.75,-128.8"/>
<polygon fill="black" stroke="black" points="387.75,-132.3 397.75,-128.8 387.75,-125.3 387.75,-132.3"/>
</g>
<!-- AuthComponent  -->
<g id="node8" class="node">
<title>AuthComponent </title>
<polygon fill="#fb8072" stroke="black" points="942.33,-214.8 829.67,-214.8 829.67,-178.8 942.33,-178.8 942.33,-214.8"/>
<text text-anchor="middle" x="886" y="-192.6" font-family="Times,serif" font-size="14.00">AuthComponent </text>
</g>
<!-- IconModule&#45;&gt;AuthComponent  -->
<g id="edge7" class="edge">
<title>IconModule&#45;&gt;AuthComponent </title>
<path fill="none" stroke="black" stroke-dasharray="5,2" d="M482.23,-134.8C589.55,-134.8 864.28,-134.8 864.28,-134.8 864.28,-134.8 864.28,-168.53 864.28,-168.53"/>
<polygon fill="black" stroke="black" points="860.78,-168.53 864.28,-178.53 867.78,-168.53 860.78,-168.53"/>
</g>
<!-- HeaderComponent  -->
<g id="node9" class="node">
<title>HeaderComponent </title>
<polygon fill="#fb8072" stroke="black" points="811.75,-214.8 686.25,-214.8 686.25,-178.8 811.75,-178.8 811.75,-214.8"/>
<text text-anchor="middle" x="749" y="-192.6" font-family="Times,serif" font-size="14.00">HeaderComponent </text>
</g>
<!-- IconModule&#45;&gt;HeaderComponent  -->
<g id="edge8" class="edge">
<title>IconModule&#45;&gt;HeaderComponent </title>
<path fill="none" stroke="black" stroke-dasharray="5,2" d="M482.23,-139.8C561.85,-139.8 726.21,-139.8 726.21,-139.8 726.21,-139.8 726.21,-168.76 726.21,-168.76"/>
<polygon fill="black" stroke="black" points="722.71,-168.76 726.21,-178.76 729.71,-168.76 722.71,-168.76"/>
</g>
<!-- MessageBoxComponent  -->
<g id="node10" class="node">
<title>MessageBoxComponent </title>
<polygon fill="#fb8072" stroke="black" points="668.66,-214.8 511.34,-214.8 511.34,-178.8 668.66,-178.8 668.66,-214.8"/>
<text text-anchor="middle" x="590" y="-192.6" font-family="Times,serif" font-size="14.00">MessageBoxComponent </text>
</g>
<!-- IconModule&#45;&gt;MessageBoxComponent  -->
<g id="edge9" class="edge">
<title>IconModule&#45;&gt;MessageBoxComponent </title>
<path fill="none" stroke="black" stroke-dasharray="5,2" d="M482.46,-144.8C518.16,-144.8 563.39,-144.8 563.39,-144.8 563.39,-144.8 563.39,-168.61 563.39,-168.61"/>
<polygon fill="black" stroke="black" points="559.89,-168.61 563.39,-178.61 566.89,-168.61 559.89,-168.61"/>
</g>
<!-- ModalComponent  -->
<g id="node11" class="node">
<title>ModalComponent </title>
<polygon fill="#fb8072" stroke="black" points="493.88,-214.8 372.12,-214.8 372.12,-178.8 493.88,-178.8 493.88,-214.8"/>
<text text-anchor="middle" x="433" y="-192.6" font-family="Times,serif" font-size="14.00">ModalComponent </text>
</g>
<!-- IconModule&#45;&gt;ModalComponent  -->
<g id="edge10" class="edge">
<title>IconModule&#45;&gt;ModalComponent </title>
<path fill="none" stroke="black" stroke-dasharray="5,2" d="M440,-149.91C440,-149.91 440,-168.79 440,-168.79"/>
<polygon fill="black" stroke="black" points="436.5,-168.79 440,-178.79 443.5,-168.79 436.5,-168.79"/>
</g>
<!-- SessionWindowComponent  -->
<g id="node12" class="node">
<title>SessionWindowComponent </title>
<polygon fill="#fb8072" stroke="black" points="353.83,-214.8 178.17,-214.8 178.17,-178.8 353.83,-178.8 353.83,-214.8"/>
<text text-anchor="middle" x="266" y="-192.6" font-family="Times,serif" font-size="14.00">SessionWindowComponent </text>
</g>
<!-- IconModule&#45;&gt;SessionWindowComponent  -->
<g id="edge11" class="edge">
<title>IconModule&#45;&gt;SessionWindowComponent </title>
<path fill="none" stroke="black" stroke-dasharray="5,2" d="M397.49,-142.8C339.27,-142.8 241.86,-142.8 241.86,-142.8 241.86,-142.8 241.86,-168.52 241.86,-168.52"/>
<polygon fill="black" stroke="black" points="238.36,-168.52 241.86,-178.52 245.36,-168.52 238.36,-168.52"/>
</g>
<!-- StatisticsComponent  -->
<g id="node13" class="node">
<title>StatisticsComponent </title>
<polygon fill="#fb8072" stroke="black" points="159.89,-214.8 24.11,-214.8 24.11,-178.8 159.89,-178.8 159.89,-214.8"/>
<text text-anchor="middle" x="92" y="-192.6" font-family="Times,serif" font-size="14.00">StatisticsComponent </text>
</g>
<!-- IconModule&#45;&gt;StatisticsComponent  -->
<g id="edge12" class="edge">
<title>IconModule&#45;&gt;StatisticsComponent </title>
<path fill="none" stroke="black" stroke-dasharray="5,2" d="M397.71,-135.8C306.17,-135.8 97.88,-135.8 97.88,-135.8 97.88,-135.8 97.88,-168.5 97.88,-168.5"/>
<polygon fill="black" stroke="black" points="94.38,-168.5 97.88,-178.5 101.38,-168.5 94.38,-168.5"/>
</g>
</g>
</svg>
